<?xml version="1.0" encoding="iso-8859-1"?>
<!-- Uploaded to: SVG Repo, www.svgrepo.com, Generator: SVG Repo Mixer Tools -->
<!DOCTYPE svg PUBLIC "-//W3C//DTD SVG 1.1//EN" "http://www.w3.org/Graphics/SVG/1.1/DTD/svg11.dtd">
<svg fill="#000000" version="1.1" id="Capa_1" xmlns="http://www.w3.org/2000/svg" xmlns:xlink="http://www.w3.org/1999/xlink" 
	 width="50px" height="30px" viewBox="0 0 97.788 97.788"
	 xml:space="preserve">
<g>
	<g>
		<rect x="45.003" y="72.488" width="7.78" height="2.603"/>
		<path d="M77.718,85.783c-1.189-17.191-8.037-27.301-14.504-31.623c-0.598-0.399-2.317-1.704-2.317-1.704
			c1.321-1.732,2.438-3.764,3.316-6.038c2.944-0.256,4.571-3.134,5.162-6.59c0.653-3.819-0.588-5.806-2.863-6.412l0.074-7.314
			c3.396-1.535,6.065-4.271,6.294-9.183c0.253-5.424-4.401-9.832-9.833-9.832c-1.615,0-3.138,0.398-4.481,1.09
			C57.774,3.516,53.728,0,48.89,0c-0.001,0-0.001,0-0.001,0c-0.083,0-0.167,0.001-0.25,0.003c-4.778,0.118-8.67,3.627-9.442,8.169
			c-1.345-0.687-2.865-1.048-4.478-1.085c-0.062-0.002-0.124-0.002-0.187-0.002c-4.636,0-9.631,3.969-9.631,9.328
			c0,4.657,2.431,8.174,6.303,9.689l0.043,7.323c-2.257,0.616-3.484,2.602-2.836,6.403c0.585,3.416,2.158,6.313,5.157,6.59
			c0.857,2.298,1.982,4.324,3.311,6.047c0,0-1.312,0.953-2.288,1.669c-6.791,4.979-13.548,15.007-14.524,31.651
			c-0.192,3.271,2.033,6.084,4.92,6.274c0.101,0.009,5.644,0.289,5.644,0.289c3.284,3.612,9.813,5.439,18.14,5.439
			c7.844,0,14.938-1.528,18.383-5.439c0,0,5.543-0.28,5.647-0.289C75.688,91.869,77.944,89.056,77.718,85.783z M61.572,28.863
			H36.204l-0.011-1.915h25.399L61.572,28.863z M33.021,21.461c-2.592-1.014-3.136-3.305-3.136-5.048
			c0-1.454,0.906-2.495,1.446-2.986c0.921-0.837,2.148-1.358,3.201-1.358l0.072,0.001c0.88,0.02,1.66,0.202,2.318,0.539
			c0.713,0.366,1.493,0.549,2.273,0.549c0.765,0,1.53-0.176,2.232-0.528c1.419-0.711,2.416-2.056,2.681-3.621
			c0.381-2.241,2.29-3.909,4.558-4.011c2.729,0.021,4.59,1.698,4.984,4.015c0.266,1.567,1.263,2.913,2.685,3.624
			c0.702,0.351,1.465,0.526,2.229,0.526c0.783,0,1.564-0.185,2.28-0.553c0.693-0.356,1.435-0.538,2.201-0.538
			c1.38,0,2.715,0.57,3.663,1.563c0.58,0.608,1.258,1.631,1.191,3.053c-0.113,2.432-1.089,3.843-3.369,4.874
			c-1.423,0.643-2.43,1.908-2.783,3.387H36.038C35.665,23.384,34.562,22.064,33.021,21.461z M36.133,37.155
			c3.271-0.773,5.485-2.035,6.99-3.309h5.617c2.697,2.422,7.035,5.323,12.629,5.708c-1.3,8.342-5.904,14.396-12.478,14.396
			C41.911,53.949,36.729,46.996,36.133,37.155z M60.231,57.124c-3.258,2.903-7.18,4.534-11.337,4.534
			c-4.225,0-8.176-1.605-11.432-4.469l2.326-1.709c2.641,2.143,5.76,3.326,9.104,3.326c3.458,0,6.533-1.203,9.109-3.322
			L60.231,57.124z M72.312,86.892c-0.747,0.041-3.887,0.2-5.015,0.257v-5.225c0-0.717-0.581-1.296-1.297-1.296
			c-0.717,0-1.297,0.579-1.297,1.296v5.359l-1.444,1.639c-2.028,2.303-7.446,3.682-14.488,3.682c-6.827,0-12.172-1.398-14.303-3.742
			l-1.387-1.524v-5.412c0-0.717-0.581-1.296-1.296-1.296c-0.717,0-1.297,0.579-1.297,1.296v5.226
			c-1.115-0.058-4.209-0.216-5.014-0.258c-0.092-0.109-0.248-0.393-0.226-0.842c0.72-13.928,5.008-21.204,8.81-24.951
			c3.204,2.799,6.964,4.647,10.945,5.385v2.537h7.78v-2.533c3.96-0.729,7.744-2.562,10.944-5.389
			c3.838,3.729,8.09,10.938,8.81,24.951C72.562,86.499,72.403,86.781,72.312,86.892z"/>
		<path d="M48.892,81.475c-1.505,0-2.724,1.221-2.724,2.725c0,1.502,1.218,2.722,2.724,2.722c1.501,0,2.721-1.22,2.721-2.722
			C51.611,82.693,50.393,81.475,48.892,81.475z"/>
	</g>
</g>
</svg>